HIERARCHY
ROOT Hips
{
 OFFSET 0.000000 0.000000 0.000000
 CHANNELS 6 Xposition Yposition Zposition Yrotation Xrotation Zrotation
 JOINT Chest
 {
  OFFSET 0.000000 9.585900 0.002600
  CHANNELS 3 Yrotation Xrotation Zrotation
  JOINT Chest2
  {
   OFFSET 0.000000 9.601200 -0.005300
   CHANNELS 3 Yrotation Xrotation Zrotation
   JOINT Chest3
   {
    OFFSET 0.000000 9.561800 0.000000
    CHANNELS 3 Yrotation Xrotation Zrotation
    JOINT Chest4
    {
     OFFSET 0.000000 9.552100 0.000000
     CHANNELS 3 Yrotation Xrotation Zrotation
     JOINT Neck
     {
      OFFSET 0.000000 14.453000 0.000000
      CHANNELS 3 Yrotation Xrotation Zrotation
      JOINT Head
      {
       OFFSET 0.000000 8.936500 -0.011300
       CHANNELS 3 Yrotation Xrotation Zrotation
       End Site
       {
        OFFSET 0.000000 17.073600 -0.006000
       }
      }
     }
     JOINT RightCollar
     {
      OFFSET -2.921100 9.558500 0.000000
      CHANNELS 3 Yrotation Xrotation Zrotation
      JOINT RightShoulder
      {
       OFFSET -13.519700 0.000000 0.000000
       CHANNELS 3 Yrotation Xrotation Zrotation
       JOINT RightElbow
       {
        OFFSET 0.000000 -29.696600 0.000000
        CHANNELS 3 Yrotation Xrotation Zrotation
        JOINT RightWrist
        {
         OFFSET 0.000000 -24.004700 0.000000
         CHANNELS 3 Yrotation Xrotation Zrotation
         End Site
         {
          OFFSET 0.000000 -17.728500 0.000000
         }
        }
       }
      }
     }
     JOINT LeftCollar
     {
      OFFSET 2.921100 9.558500 0.000000
      CHANNELS 3 Yrotation Xrotation Zrotation
      JOINT LeftShoulder
      {
       OFFSET 13.519700 0.000000 0.000000
       CHANNELS 3 Yrotation Xrotation Zrotation
       JOINT LeftElbow
       {
        OFFSET 0.000000 -29.696600 0.000000
        CHANNELS 3 Yrotation Xrotation Zrotation
        JOINT LeftWrist
        {
         OFFSET 0.000000 -24.004700 0.000000
         CHANNELS 3 Yrotation Xrotation Zrotation
         End Site
         {
          OFFSET 0.000000 -17.728500 0.000000
         }
        }
       }
      }
     }
    }
   }
  }
 }
 JOINT RightHip
 {
  OFFSET -7.771700 -0.012900 -0.001300
  CHANNELS 3 Yrotation Xrotation Zrotation
  JOINT RightKnee
  {
   OFFSET 0.000000 -40.869800 0.001200
   CHANNELS 3 Yrotation Xrotation Zrotation
   JOINT RightAnkle
   {
    OFFSET 0.000000 -39.717900 0.002100
    CHANNELS 3 Yrotation Xrotation Zrotation
    JOINT RightToe
    {
     OFFSET 0.000000 -4.965400 11.033500
     CHANNELS 3 Yrotation Xrotation Zrotation
     End Site
     {
      OFFSET 0.000000 -1.423100 5.872300
     }
    }
   }
  }
 }
 JOINT LeftHip
 {
  OFFSET 7.771700 -0.012900 -0.001300
  CHANNELS 3 Yrotation Xrotation Zrotation
  JOINT LeftKnee
  {
   OFFSET 0.000000 -40.869800 0.001200
   CHANNELS 3 Yrotation Xrotation Zrotation
   JOINT LeftAnkle
   {
    OFFSET 0.000000 -39.717900 0.002100
    CHANNELS 3 Yrotation Xrotation Zrotation
    JOINT LeftToe
    {
     OFFSET 0.000000 -4.965400 11.033500
     CHANNELS 3 Yrotation Xrotation Zrotation
     End Site
     {
      OFFSET 0.000000 -1.423100 5.872300
     }
    }
   }
  }
 }
}
MOTION
Frames: 5
Frame Time: 0.008333
-15.032332 57.435443 57.333721 -178.784411 -45.345015 -3.020680 1.899155 28.542678 4.392631 0.223139 5.490312 0.487375 0.368427 8.597930 0.775292 1.347198 23.387005 2.337015 -1.635049 18.202802 -1.367853 -2.569187 -1.985095 -1.976428 4.546391 -5.296077 -1.700060 26.432897 -31.729194 -26.397185 -155.393581 -69.274706 -166.192882 19.896496 -29.645901 -56.692182 -11.350422 -8.774786 -2.409040 -10.361218 -27.675787 5.598800 172.089316 -65.721061 162.165604 -5.492414 -8.519877 36.465565 6.002694 -25.811645 -5.068395 -1.965466 65.968510 -2.199647 4.883354 7.973629 7.429272 -0.036476 0.157649 -0.022172 -11.122807 -33.574027 -0.875341 24.653594 61.436302 20.427435 -9.254883 40.666999 4.705874 0.549797 -20.673377 -8.095703
-15.034982 57.435567 57.334329 -178.782290 -45.344278 -3.024127 1.893885 28.541978 4.392686 0.225671 5.490637 0.487011 0.364701 8.596287 0.775067 1.346604 23.386587 2.337133 -1.637129 18.210561 -1.368052 -2.566053 -1.967433 -1.982169 4.547658 -5.298468 -1.704499 26.431639 -31.727136 -26.396834 -155.378314 -69.275961 -166.207884 19.906724 -29.631210 -56.710731 -11.362083 -8.788000 -2.406867 -10.349970 -27.673542 5.590263 172.105807 -65.736262 162.150214 -5.487699 -8.494745 36.438835 6.000351 -25.812650 -5.068859 -1.983328 65.969209 -2.213870 4.893840 7.973282 7.430283 -0.035872 0.158484 -0.022542 -11.128488 -33.571491 -0.873607 24.651156 61.435514 20.421462 -9.251590 40.643775 4.708330 0.546877 -20.650319 -8.095065
-15.038350 57.435357 57.335184 -178.779222 -45.340630 -3.025405 1.886104 28.538240 4.390008 0.224963 5.490045 0.486036 0.367827 8.596951 0.774633 1.324529 23.380431 2.333881 -1.625934 18.224036 -1.373470 -2.561517 -1.946129 -1.987282 4.572854 -5.298461 -1.715034 26.404304 -31.740067 -26.398216 -155.297739 -69.277342 -166.270285 19.909697 -29.626874 -56.724298 -11.348357 -8.787091 -2.409939 -10.353860 -27.681013 5.586829 172.120300 -65.746836 162.138409 -5.488792 -8.487115 36.442314 5.998754 -25.816572 -5.075968 -1.974139 65.971297 -2.200471 4.896401 7.971271 7.431264 -0.036443 0.160060 -0.024132 -11.131241 -33.573568 -0.873898 24.624229 61.439482 20.389890 -9.226111 40.627931 4.724000 0.540178 -20.632940 -8.096594
-15.040611 57.435960 57.335322 -178.787632 -45.342657 -3.026317 1.888818 28.540376 4.394864 0.218639 5.487228 0.486231 0.373165 8.596685 0.773152 1.325199 23.381792 2.332393 -1.629202 18.230757 -1.374904 -2.555005 -1.940858 -1.991076 4.574370 -5.305153 -1.720597 26.388307 -31.742778 -26.391218 -155.260351 -69.278161 -166.294739 19.912045 -29.626408 -56.737159 -11.348013 -8.788061 -2.409196 -10.372444 -27.697712 5.583157 172.149994 -65.768719 162.113441 -5.489462 -8.474399 36.442538 5.997637 -25.815035 -5.076304 -1.962020 65.970609 -2.180302 4.902611 7.969701 7.428500 -0.038116 0.162464 -0.027553 -11.124566 -33.569352 -0.870665 24.584496 61.451291 20.351417 -9.178572 40.602237 4.753898 0.524779 -20.612245 -8.102373
-15.043506 57.437435 57.334671 -178.805339 -45.350456 -3.017498 1.894587 28.547382 4.395199 0.217580 5.485275 0.485873 0.362817 8.591265 0.772778 1.337973 23.388330 2.329657 -1.631107 18.237147 -1.374706 -2.550339 -1.935432 -1.995823 4.568099 -5.315248 -1.730949 26.382005 -31.740656 -26.375830 -155.218702 -69.280413 -166.335734 19.916594 -29.630329 -56.733244 -11.349436 -8.789081 -2.407966 -10.368382 -27.698248 5.580100 172.145256 -65.775871 162.108007 -5.491591 -8.464060 36.440846 6.003632 -25.807768 -5.076296 -1.958183 65.970110 -2.172564 4.907259 7.967326 7.427768 -0.036860 0.165021 -0.031573 -11.091807 -33.555052 -0.881377 24.558184 61.450340 20.341193 -9.176663 40.578624 4.752804 0.523838 -20.590731 -8.099372
